<svg height="150px" width="100px" xmlns="http://www.w3.org/2000/svg"><g fill="none" fill-rule="evenodd"><path d="M0 0h100v150H0z" fill="#141414"/><path d="M15.593 140.493v-32.34c0-4.84-.806-6.013-3.96-8.506V99.5h25.594v.147c-3.154 2.493-3.96 3.666-3.96 8.506v25.3c0 13.86-11.44 18.114-23.614 18.114-9.313 0-20.093-3.96-20.093-13.274 0-6.086 4.913-9.46 10.78-9.46 3.813 0 7.113 1.467 8.8 3.814-3.96-.22-5.94 3.666-5.94 8.213 0 5.133 1.98 9.313 6.453 9.313 4.107 0 5.94-3.446 5.94-9.68zm71.9 11.074l-13.273-33-13.42 33h-.44l-18.553-43.854c-1.834-4.4-3.3-6.16-5.354-8.066V99.5h25.74v.147c-1.98 1.32-2.786 2.566-2.786 4.473 0 1.247.22 2.347.806 3.813l8.214 19.8 4.693-11.806-3.3-8.214c-1.833-4.4-3.3-6.16-5.353-8.066V99.5H89.84v.147c-1.98 1.32-2.787 2.566-2.787 4.473 0 1.247.294 2.347.807 3.813l7.333 20.314 7.627-19.654c.367-1.026.587-1.98.587-2.86-.074-2.42 1.443-4.62-1.49-6.233h-2.91 13.053v.147c-2.42 1.98-4.693 4.4-6.527 8.8l-17.6 43.12z" fill="#fff" fill-rule="nonzero"/></g></svg>