<svg
        xmlns="http://www.w3.org/2000/svg"
        viewBox="0 0 70 70">
    <path fill-rule="evenodd"  fill="#62574d"
          d="M66.451,42.362 L42.055,66.938 C38.013,71.009 31.460,71.009 27.417,66.938 L27.062,66.580 L56.700,36.725 C58.047,35.367 58.047,33.167 56.700,31.809 L51.065,26.133 L42.273,34.989 L34.737,27.399 L48.045,13.992 C49.392,12.634 51.577,12.634 52.924,13.992 L66.451,27.618 C70.493,31.689 70.493,38.292 66.451,42.362 ZM12.773,38.171 L18.408,43.847 L27.559,34.629 L35.095,42.220 L21.427,55.988 C20.080,57.346 17.896,57.346 16.548,55.988 L3.022,42.362 C-1.020,38.292 -1.020,31.689 3.022,27.618 L27.417,3.043 C31.460,-1.029 38.013,-1.029 42.055,3.043 L42.410,3.400 L12.773,33.256 C11.425,34.613 11.425,36.813 12.773,38.171 Z"/>
</svg>